<?xml version="1.0" encoding="utf-8"?>
<!-- Generator: Adobe Illustrator 23.0.2, SVG Export Plug-In . SVG Version: 6.00 Build 0)  -->
<svg version="1.1" id="Camada_1" xmlns="http://www.w3.org/2000/svg" xmlns:xlink="http://www.w3.org/1999/xlink" x="0px" y="0px"
	 width="159.9px" height="159.9px" viewBox="0 0 159.9 159.9" style="enable-background:new 0 0 159.9 159.9;" xml:space="preserve"
	>
<style type="text/css">
	.st0{fill:#E6E571;}
	.st1{fill:#C1C1C1;}
	.st2{fill:#C43D39;}
	.st3{fill:#FFFFFF;}
	.st4{fill:#878888;}
	.st5{fill:#363438;}
	.st6{fill:#848689;}
</style>
<g transform="translate(-384 -6.063)">
	<circle class="st0" cx="464" cy="86" r="80"/>
	<path class="st1" d="M454.9,136.9c-5.1-4-8.3-9.8-9-16.2L433.5,134c-15.2-18.9-12.3-46.6,6.7-61.9c0,0,0.1-0.1,0.1-0.1
		c0.3-6.5,3.4-12.6,8.4-16.8c-1,0-2-0.2-3-0.6l-56.9,95.8h50.6l3.5-12.1h13.2C455.7,137.9,455.3,137.4,454.9,136.9L454.9,136.9z"/>
	<path class="st1" d="M487.6,68.8c2.1,1.2,4.1,2.7,6,4.3l-10.9-18.4c-1,0.4-2,0.6-3.1,0.6C483.8,58.7,486.6,63.4,487.6,68.8z"/>
	<path class="st0" d="M493.6,73c2.5,2.1,4.8,4.6,6.7,7.2l-15.8-26.7c-0.6,0.4-1.2,0.7-1.9,1L493.6,73z"/>
	<path class="st1" d="M470.5,34l-6.3-10.6L458,34C462.1,33.4,466.4,33.5,470.5,34L470.5,34z"/>
	<path class="st1" d="M499.2,134l-6.9-7.4c-1.1,4.4-3.2,8.5-6.1,12l3.5,11.9h49.8L508,97.3c0.6,3,0.9,6,0.9,9.1
		C508.9,116.4,505.5,126.2,499.2,134z"/>
	<path class="st0" d="M543.2,152.6l-38.3-64.7c1.4,3,2.4,6.2,3.1,9.4l31.5,53.2h-49.8l-3.5-11.9c-3.9,4.6-9.2,7.4-15,7.4
		c-1.2,0-2.4-0.1-3.5-0.4l-1.4,1.9l-1.8-2.9c-3.3-1.4-6.2-3.6-8.5-6.4h-13.2l-3.5,12.2h-50.6l56.9-95.8c-0.7-0.2-1.3-0.6-1.9-1
		l-58.8,98.9H543.2z"/>
	<path class="st0" d="M464.2,23.4l6.3,10.6c0.9,0.1,1.8,0.3,2.7,0.5l-9-15.2l-9,15.1c0.9-0.2,1.8-0.3,2.7-0.5L464.2,23.4z"/>
	<path class="st2" d="M445.7,117.3c0-9.2,4.6-17.1,11.3-21c0.3-0.2,0.7-0.4,1-0.6c-0.1,0-0.3-0.1-0.4-0.1
		c-10.2-2.7-17.4-12-17.4-22.6c0-0.4,0-0.7,0-1.1l0,0c-19,15.2-22.1,42.9-6.9,61.9c0,0,0.1,0.1,0.1,0.1l12.4-13.3l0,0
		C445.8,119.6,445.7,118.5,445.7,117.3z"/>
	<path class="st2" d="M508,97.3c-2-9.4-7-18-14.3-24.2c-1.9-1.6-3.9-3-6-4.3l0,0c-1.1-0.7-2.3-1.3-3.4-1.8c0.2,1,0.3,2,0.3,2.9
		c0.1,6.1-7.3,14.6-12.6,19.9c1.8,0.1,3.7,0.4,5.4,1c0.6,0.2,1.1,0.4,1.7,0.7c8.4,4,14.5,14.3,14.5,26.4c0,2.9-0.4,5.9-1.1,8.7l0,0
		l6.9,7.4c6.3-7.8,9.8-17.6,9.7-27.6C508.9,103.3,508.6,100.3,508,97.3z"/>
	<path class="st3" d="M473.4,34.7c-0.9-0.2-1.8-0.3-2.7-0.5c-4.2-0.6-8.5-0.6-12.8,0c-0.9,0.1-1.9,0.3-2.7,0.5
		c-3.1,0.6-6.1,1.7-8.8,3.3c4.7-1.4,9.5,1.3,10.9,6c0.7,2.3,0.4,4.7-0.8,6.8c0,0-0.1,0.1-0.1,0.1c2.5-0.9,5.1-1.3,7.8-1.3
		c0.3,0,0.6,0,0.9,0h0.2c0.2,0,0.3,0,0.5,0c0.2,0,0.5,0,0.7,0.1l0.3,0c0.3,0,0.6,0.1,0.9,0.1c0.2,0,0.3,0,0.5,0.1s0.3,0.1,0.5,0.1
		s0.3,0.1,0.5,0.1s0.3,0.1,0.5,0.1c0,0,0,0,0,0c0.1,0,0.2,0.1,0.3,0.1c0.1,0,0.1,0,0.2,0l0.4,0.1c0.1,0,0.3,0.1,0.4,0.1
		c0.2,0.1,0.4,0.1,0.6,0.2c0.1,0,0.2,0.1,0.4,0.1h0l-0.1-0.1c-2.4-4.2-0.9-9.6,3.3-12c2.1-1.2,4.5-1.5,6.8-0.8
		C479.3,36.4,476.4,35.3,473.4,34.7z"/>
	<path class="st4" d="M473.2,34.5c-0.9-0.2-1.8-0.3-2.7-0.5c-4.2-0.6-8.4-0.6-12.5,0c-0.9,0.1-1.8,0.3-2.7,0.5
		c-3.4,0.6-6.7,1.9-9.7,3.8c0.1,0,0.2-0.1,0.4-0.1c0.1,0,0.2-0.1,0.3-0.1l0,0c2.7-1.6,5.7-2.8,8.8-3.3c0.9-0.2,1.8-0.3,2.7-0.5
		c4.2-0.6,8.5-0.6,12.8,0c0.9,0.1,1.9,0.3,2.7,0.5c3,0.6,5.9,1.7,8.6,3.3c0.1,0,0.2,0.1,0.4,0.1s0.2,0.1,0.4,0.1
		C479.8,36.3,476.6,35.1,473.2,34.5z"/>
	<path class="st5" d="M458.1,95.8"/>
	<path class="st5" d="M479.6,55.2L479.6,55.2c-1.8-1.5-3.7-2.7-5.8-3.6c-0.5-0.2-1.1-0.4-1.6-0.6l-0.2-0.1h0c-0.1,0-0.2-0.1-0.4-0.1
		c-0.2-0.1-0.4-0.1-0.6-0.2c-0.1,0-0.3-0.1-0.4-0.1l-0.4-0.1c-0.1,0-0.1,0-0.2,0c-0.1,0-0.2-0.1-0.3-0.1c0,0,0,0,0,0
		c-0.2,0-0.3-0.1-0.5-0.1l-0.5-0.1c-0.2,0-0.3-0.1-0.5-0.1s-0.3-0.1-0.5-0.1c-0.3,0-0.6-0.1-0.9-0.1l-0.3,0c-0.2,0-0.5,0-0.7-0.1
		c-0.2,0-0.3,0-0.5,0H465c-0.3,0-0.6,0-0.9,0c-2.7,0-5.3,0.4-7.8,1.3l-0.2,0.1l0,0c-0.5,0.2-1.1,0.4-1.6,0.6
		c-2.1,0.9-4.1,2.1-5.8,3.6l0,0c-5,4.2-8.1,10.3-8.4,16.8l0,0c0,0.4,0,0.7,0,1.1c0.1,10.6,7.2,19.9,17.4,22.6c0.1,0,0.3,0.1,0.4,0.1
		l0,0c0.9-0.5,1.9-0.8,2.9-1.1c0.3-0.1,0.7-0.2,1-0.3c0.3-0.1,0.6-0.1,0.9-0.2s0.6-0.1,0.9-0.2l0.3,0c0.2,0,0.5-0.1,0.7-0.1l0.3,0
		l-0.5-0.4c-0.1-0.1-0.2-0.2-0.3-0.2c-0.4-0.4-0.9-0.9-1.5-1.4c-0.5-0.5-1-1-1.6-1.5c-0.2-0.2-0.4-0.4-0.6-0.6l-0.3-0.3
		c-0.5-0.5-1-1-1.5-1.6l-0.2-0.2c-0.3-0.3-0.6-0.6-0.9-0.9c-4.8-5.2-9.8-11.9-9.7-16.9c0-1,0.1-2,0.3-2.9c0.2-0.9,0.4-1.8,0.7-2.6
		c0.1-0.2,0.1-0.4,0.2-0.6l0,0c0.1-0.2,0.2-0.4,0.2-0.6s0.2-0.4,0.3-0.6c0.1-0.3,0.3-0.6,0.4-0.9c0.3-0.5,0.6-1,0.9-1.5
		c0.1-0.2,0.3-0.4,0.4-0.6l0.2-0.3c0.1-0.2,0.3-0.4,0.4-0.5c0.2-0.3,0.5-0.5,0.7-0.8c0.2-0.2,0.4-0.4,0.5-0.5
		c0.3-0.3,0.6-0.5,0.9-0.7l0,0c2.7-2.2,6.6-3.6,11.9-3.6s9.2,1.5,11.9,3.6c0.3,0.2,0.6,0.5,0.9,0.7c0.2,0.2,0.4,0.3,0.5,0.5
		c0.1,0.1,0.3,0.3,0.4,0.4s0.2,0.3,0.4,0.4c0.2,0.2,0.3,0.4,0.4,0.5l0.2,0.3c0.1,0.2,0.3,0.4,0.4,0.6c0.3,0.5,0.6,1,0.9,1.5
		c0.2,0.3,0.3,0.6,0.4,0.9c0.1,0.2,0.2,0.4,0.3,0.6s0.2,0.4,0.2,0.6l0,0c0.1,0.2,0.1,0.4,0.2,0.6c0.3,0.9,0.5,1.7,0.7,2.6
		c1.2,0.6,2.3,1.2,3.4,1.8l0,0C486.6,63.4,483.8,58.7,479.6,55.2z"/>
	<path class="st5" d="M487.6,68.8"/>
	<path class="st6" d="M454.5,39.8c-2.3-2-5.4-2.6-8.2-1.8l0,0c-0.1,0-0.2,0.1-0.3,0.1s-0.2,0.1-0.4,0.1l-0.1,0
		c-4.5,1.8-6.7,6.9-4.9,11.4c1.3,3.3,4.5,5.5,8,5.5l0,0c1.8-1.5,3.7-2.7,5.8-3.6c0.5-0.2,1.1-0.4,1.6-0.6l0,0l0.2-0.1
		c0,0,0.1-0.1,0.1-0.1C458.5,47.1,457.7,42.5,454.5,39.8L454.5,39.8z"/>
	<path class="st6" d="M454.5,39.8c-2.3-2-5.4-2.6-8.2-1.8l0,0c-0.1,0-0.2,0.1-0.3,0.1s-0.2,0.1-0.4,0.1l-0.1,0
		c-4.5,1.8-6.7,6.9-4.9,11.4c1.3,3.3,4.5,5.5,8,5.5l0,0c1.8-1.5,3.7-2.7,5.8-3.6c0.5-0.2,1.1-0.4,1.6-0.6l0,0l0.2-0.1
		c0,0,0.1-0.1,0.1-0.1C458.5,47.1,457.7,42.5,454.5,39.8L454.5,39.8z"/>
	<path class="st3" d="M472.7,95c-0.2-0.1-0.4-0.1-0.6-0.2c-1.5-0.5-3-0.8-4.6-0.9l0,0c1-0.9,2.6-2.3,4.3-4.1
		c5.4-5.4,12.8-13.8,12.6-19.9c0-1-0.1-2-0.3-2.9l0,0c-0.2-0.9-0.4-1.8-0.7-2.6c-0.1-0.2-0.1-0.4-0.2-0.6l0,0
		c-0.1-0.2-0.2-0.4-0.2-0.6s-0.2-0.4-0.3-0.6c-0.1-0.3-0.3-0.6-0.4-0.9c-0.3-0.5-0.6-1-0.9-1.5c-0.1-0.2-0.3-0.4-0.4-0.6l-0.2-0.3
		c-0.1-0.2-0.3-0.4-0.4-0.5c-0.1-0.1-0.2-0.3-0.4-0.4s-0.2-0.3-0.4-0.4c-0.2-0.2-0.4-0.4-0.5-0.5l0,0c-0.3-0.2-0.5-0.5-0.8-0.7l0,0
		l-0.1-0.1c-2.7-2.1-6.6-3.6-11.8-3.6c-3.9-0.1-7.8,0.9-11.1,3c-0.3,0.2-0.5,0.4-0.8,0.6l0,0l-0.2,0.1c-0.2,0.2-0.4,0.3-0.6,0.5
		c-0.1,0-0.1,0.1-0.2,0.1c-0.2,0.2-0.4,0.3-0.5,0.5c-0.3,0.3-0.5,0.5-0.7,0.8l0,0c-0.1,0.2-0.3,0.3-0.4,0.5l0,0l-0.2,0.3
		c-0.1,0.2-0.3,0.4-0.4,0.6c-0.3,0.5-0.6,1-0.9,1.4c-0.2,0.3-0.3,0.6-0.4,0.9c-0.1,0.2-0.2,0.4-0.3,0.6s-0.2,0.4-0.2,0.6l0,0
		c-0.1,0.2-0.1,0.4-0.2,0.6c-0.3,0.9-0.5,1.7-0.7,2.6c-0.2,1-0.3,2-0.3,2.9c-0.1,5,4.9,11.7,9.7,16.9c0.3,0.3,0.6,0.6,0.9,0.9
		l0.2,0.2c0.5,0.6,1,1.1,1.5,1.6l0.3,0.3c0.2,0.2,0.4,0.4,0.6,0.6c0.6,0.5,1.1,1.1,1.6,1.5c0.5,0.5,1,1,1.5,1.4
		c0.1,0.1,0.2,0.2,0.3,0.2l0.5,0.4l0,0l-0.3,0h-0.1c-0.2,0-0.5,0-0.7,0.1l-0.3,0c-0.3,0-0.6,0.1-0.9,0.2s-0.6,0.1-0.9,0.2
		c-0.3,0.1-0.7,0.2-1,0.3c-0.1,0-0.2,0.1-0.3,0.1c-0.9,0.3-1.8,0.6-2.6,1.1l0,0c-0.3,0.2-0.7,0.4-1,0.6c-6.7,3.9-11.3,11.8-11.3,21
		c0,1.1,0.1,2.3,0.2,3.4l0,0c0.7,6.4,4,12.2,9,16.2l0,0c0.7,0.5,1.4,1,2.2,1.4c1,0.6,2.1,1.1,3.2,1.4c1.9,0.7,4,1,6,1
		c3.2,0,6.4-0.9,9.2-2.5c5.9-3.4,10.2-9.9,11.2-17.7c0.1-1.1,0.2-2.2,0.2-3.3C486.9,106.9,481,98.1,472.7,95z"/>
	<path class="st5" d="M458.1,95.8"/>
	<path class="st6" d="M482.8,38.3L482.8,38.3L482.8,38.3c-0.2-0.1-0.3-0.1-0.4-0.2S482.1,38,482,38c-4.7-1.4-9.5,1.3-10.9,6
		c-0.7,2.3-0.4,4.7,0.8,6.8l0.1,0.1l0,0l0.2,0.1c0.5,0.2,1.1,0.4,1.6,0.6c2.1,0.9,4.1,2.1,5.8,3.6l0,0c4.8-0.1,8.7-4.1,8.7-8.9
		C488.2,42.8,486,39.6,482.8,38.3L482.8,38.3z"/>
	<path class="st6" d="M482.8,38.3L482.8,38.3L482.8,38.3c-0.2-0.1-0.3-0.1-0.4-0.2S482.1,38,482,38c-4.7-1.4-9.5,1.3-10.9,6
		c-0.7,2.3-0.4,4.7,0.8,6.8l0.1,0.1l0,0l0.2,0.1c0.5,0.2,1.1,0.4,1.6,0.6c2.1,0.9,4.1,2.1,5.8,3.6l0,0c4.8-0.1,8.7-4.1,8.7-8.9
		C488.2,42.8,486,39.6,482.8,38.3L482.8,38.3z"/>
	<path class="st5" d="M493.4,117.9c0-12.1-6-22.4-14.5-26.4c-0.6-0.3-1.1-0.5-1.7-0.7c-1.7-0.6-3.5-1-5.4-1
		c-1.8,1.8-3.3,3.2-4.3,4.1c1.6,0.1,3.1,0.4,4.6,0.9c0.2,0.1,0.4,0.1,0.6,0.2c8.2,3.1,14.2,11.9,14.2,22.3c0,1.1-0.1,2.2-0.2,3.3
		c-1,7.8-5.3,14.3-11.2,17.7c-2.8,1.6-6,2.5-9.2,2.5c-2.1,0-4.1-0.3-6-1c-1.1-0.4-2.2-0.9-3.2-1.4c-0.8-0.4-1.5-0.9-2.2-1.4
		c0.4,0.5,0.7,1,1.1,1.4c2.3,2.8,5.2,5,8.5,6.4c0.6,0.2,1.2,0.4,1.8,0.6v2.3l1.4-1.9c1.2,0.2,2.3,0.4,3.5,0.4c5.8,0,11-2.8,15-7.4
		c2.9-3.5,5-7.6,6.1-12l0,0C493,123.7,493.4,120.8,493.4,117.9z"/>
</g>
</svg>
